<svg width="120" height="120" viewBox="0 0 120 120" fill="none" xmlns="http://www.w3.org/2000/svg">
<g clip-path="url(#clip0_208_6701)">
<path d="M120 60C120 26.8629 93.1371 0 60 0C26.8629 0 0 26.8629 0 60C0 93.1371 26.8629 120 60 120C93.1371 120 120 93.1371 120 60Z" fill="url(#paint0_linear_208_6701)"/>
<path d="M77.607 63.6132C76.3786 61.7592 74.5602 60.4224 72.1518 59.6028C74.2718 58.64 75.8856 57.231 76.9932 55.3758C78.1008 53.5206 78.6548 51.413 78.6552 49.053C78.6552 45.1034 77.5472 42.0444 75.3312 39.876C73.1152 37.7076 69.9352 36.6236 65.7912 36.624H64.623V29.4294H59.7234V36.624H54.8172V29.4294H49.9158V36.624H40.5498V41.9712H42.6456C43.6084 41.9712 44.2948 42.176 44.7048 42.5856C45.1148 42.9952 45.3196 43.6576 45.3192 44.5728V75.3528C45.3192 76.3172 45.1144 77.0158 44.7048 77.4486C44.2952 77.8814 43.6088 78.0982 42.6456 78.099H40.5498V83.3736H49.9158V90.5682H54.8172V83.376H59.7234V90.5706H64.6248V83.376H66.9492C70.8508 83.376 73.9108 82.1596 76.1292 79.7268C78.3476 77.294 79.4556 74.199 79.4532 70.4418C79.4512 67.7442 78.8358 65.468 77.607 63.6132ZM69.3696 43.74C70.5496 44.9684 71.1398 46.8592 71.1402 49.4124C71.1402 51.8688 70.4416 53.7716 69.0444 55.1208C67.6472 56.47 65.7204 57.1444 63.264 57.144H52.98V41.8992H63.6264C66.274 41.8992 68.1884 42.5128 69.3696 43.74ZM70.056 76.1124C68.8032 77.438 67.069 78.1004 64.8534 78.0996H52.98V62.565H63.6984C66.492 62.565 68.5634 63.1672 69.9126 64.3716C71.2618 65.576 71.9364 67.527 71.9364 70.2246C71.9356 72.8262 71.3088 74.7894 70.056 76.1142V76.1124Z" fill="white"/>
<path d="M77.607 63.6132C76.3786 61.7592 74.5602 60.4224 72.1518 59.6028C74.2718 58.64 75.8856 57.231 76.9932 55.3758C78.1008 53.5206 78.6548 51.413 78.6552 49.053C78.6552 45.1034 77.5472 42.0444 75.3312 39.876C73.1152 37.7076 69.9352 36.6236 65.7912 36.624H64.623V29.4294H59.7234V36.624H54.8172V29.4294H49.9158V36.624H40.5498V41.9712H42.6456C43.6084 41.9712 44.2948 42.176 44.7048 42.5856C45.1148 42.9952 45.3196 43.6576 45.3192 44.5728V75.3528C45.3192 76.3172 45.1144 77.0158 44.7048 77.4486C44.2952 77.8814 43.6088 78.0982 42.6456 78.099H40.5498V83.3736H49.9158V90.5682H54.8172V83.376H59.7234V90.5706H64.6248V83.376H66.9492C70.8508 83.376 73.9108 82.1596 76.1292 79.7268C78.3476 77.294 79.4556 74.199 79.4532 70.4418C79.4512 67.7442 78.8358 65.468 77.607 63.6132ZM69.3696 43.74C70.5496 44.9684 71.1398 46.8592 71.1402 49.4124C71.1402 51.8688 70.4416 53.7716 69.0444 55.1208C67.6472 56.47 65.7204 57.1444 63.264 57.144H52.98V41.8992H63.6264C66.274 41.8992 68.1884 42.5128 69.3696 43.74ZM70.056 76.1124C68.8032 77.438 67.069 78.1004 64.8534 78.0996H52.98V62.565H63.6984C66.492 62.565 68.5634 63.1672 69.9126 64.3716C71.2618 65.576 71.9364 67.527 71.9364 70.2246C71.9356 72.8262 71.3088 74.7894 70.056 76.1142V76.1124Z" fill="white"/>
<path d="M105.018 62.0994L105.071 60H110.618L110.559 62.3532L105.018 62.0994Z" fill="white"/>
<path d="M104.643 66.1458L104.775 65.1054L104.841 64.5852L104.88 64.062L110.405 64.5552L110.359 65.142L110.287 65.727L110.139 66.8952L104.643 66.1458Z" fill="white"/>
<path d="M103.911 70.1406L104.148 69.1188L104.333 68.0868L109.791 69.0756L109.582 70.2354L109.317 71.3832L103.911 70.1406Z" fill="white"/>
<path d="M83.9917 98.148C84.5767 97.7652 85.1791 97.4082 85.7395 96.9894L88.9123 101.539C88.2817 102.008 87.6073 102.412 86.9491 102.841L83.9917 98.148Z" fill="white"/>
<path d="M80.46 100.155L81.3936 99.675C81.7008 99.5094 82.0002 99.3282 82.3044 99.156L85.0548 103.973C84.7134 104.167 84.3762 104.369 84.0306 104.555L82.9824 105.095L80.46 100.155Z" fill="white"/>
<path d="M76.7646 101.836C77.4204 101.596 78.0552 101.3 78.6912 101.011L80.9946 106.057C80.28 106.382 79.566 106.71 78.8298 106.985L76.7646 101.836Z" fill="white"/>
<path d="M23.1911 85.9932L23.7989 86.8488C24.0035 87.132 24.2285 87.4002 24.4421 87.6768L20.0669 91.0878C19.8269 90.777 19.5767 90.4746 19.3469 90.1566L18.6641 89.1966L23.1911 85.9932Z" fill="white"/>
<path d="M21 82.575C21.1764 82.875 21.342 83.1852 21.5274 83.481L22.0944 84.3636L17.4306 87.3678L16.7952 86.376C16.5876 86.0424 16.3998 85.6974 16.2012 85.356L21 82.575Z" fill="white"/>
<path d="M19.1177 78.9744C19.3895 79.6194 19.7351 80.2284 20.0465 80.8542L15.1313 83.4252C14.7797 82.7232 14.3963 82.0362 14.0879 81.3132L19.1177 78.9744Z" fill="white"/>
<path d="M19.5186 40.176C19.2 40.8 18.936 41.4462 18.6408 42.0798L13.5522 39.8718C13.8816 39.159 14.184 38.4318 14.5386 37.7322L19.5186 40.176Z" fill="white"/>
<path d="M21.4656 36.6102L20.4192 38.4282L15.5508 35.769L16.7262 33.7272L21.4656 36.6102Z" fill="white"/>
<path d="M23.7361 33.24C23.3347 33.8124 22.9183 34.3746 22.5271 34.9542L17.9185 31.8672C18.3571 31.2168 18.8233 30.5838 19.2751 29.9424L23.7361 33.24Z" fill="white"/>
<path d="M26.299 30.087C25.8496 30.6228 25.3654 31.1298 24.9418 31.6866L20.6284 28.2C21.1084 27.576 21.6454 27.0036 22.1518 26.4042L26.299 30.087Z" fill="white"/>
<path d="M29.1334 27.1746C28.6294 27.66 28.1098 28.1286 27.6382 28.6464L23.6548 24.786C24.1858 24.207 24.7666 23.6778 25.3348 23.1342L29.1334 27.1746Z" fill="white"/>
<path d="M32.2158 24.5262L31.3902 25.1742L30.5952 25.86L26.9736 21.66C27.2736 21.4044 27.5646 21.1434 27.8664 20.8926L28.7922 20.16L32.2158 24.5262Z" fill="white"/>
<path d="M35.5201 22.1646C35.2285 22.3572 34.9255 22.5336 34.6423 22.7382L33.7879 23.3466L30.5581 18.84L31.5181 18.1584C31.8373 17.9292 32.1781 17.7288 32.5039 17.5134L35.5201 22.1646Z" fill="white"/>
<path d="M39.0245 20.109C38.3933 20.409 37.8041 20.7906 37.1933 21.129L34.3799 16.3482C35.0651 15.9654 35.7299 15.5442 36.4373 15.201L39.0245 20.109Z" fill="white"/>
<path d="M96.6754 33.8202C96.4714 33.5364 96.274 33.2472 96.0646 32.967L95.416 32.1426L99.7738 28.71L100.5 29.6364C100.734 29.9508 100.957 30.2742 101.186 30.5934L96.6754 33.8202Z" fill="white"/>
<path d="M98.8892 37.2264C98.555 36.6114 98.1584 36.0348 97.7852 35.4432L102.433 32.4162C102.853 33.0792 103.296 33.7296 103.673 34.4184L98.8892 37.2264Z" fill="white"/>
<path d="M100.788 40.8168C100.505 40.1778 100.159 39.5682 99.8491 38.9418L104.752 36.3456C105.102 37.0482 105.486 37.7352 105.806 38.4522L100.788 40.8168Z" fill="white"/>
<path d="M26.4 90.0288C32.2944 96.6474 40.176 101.474 48.7596 103.658C57.3336 105.864 66.5838 105.466 74.9274 102.529L76.764 107.764C67.3698 111.064 57.024 111.509 47.3802 109.031C44.9746 108.394 42.6144 107.598 40.3152 106.646C38.0306 105.662 35.8147 104.525 33.6822 103.244C31.5659 101.937 29.5412 100.487 27.6222 98.904C25.7173 97.3056 23.9269 95.5755 22.2642 93.7266L26.4 90.0288Z" fill="white"/>
<path d="M105.071 60C105.064 54.3914 104.017 48.8327 101.982 43.6062L107.149 41.5872C109.435 47.4572 110.611 53.7006 110.618 60H105.071Z" fill="white"/>
<path d="M16.8174 47.0826C14.6304 54.3858 14.3532 62.277 15.993 69.7254L10.575 70.92C8.73424 62.5452 9.04384 53.7198 11.502 45.498L16.8174 47.0826Z" fill="white"/>
<path d="M44.7526 112.549L44.6224 112.51C37.8598 110.537 31.3666 107.157 25.8424 102.735C20.2913 98.2817 15.6522 92.7985 12.1798 86.5866L12.1138 86.4666L19.7338 82.221L19.8004 82.341C25.6822 92.8998 35.4753 100.727 47.071 104.136L47.2018 104.174L44.7526 112.549ZM12.4798 86.5728C19.4273 98.9718 30.9391 108.17 44.5654 112.211L46.861 104.359C35.2972 100.922 25.528 93.1141 19.6264 82.5924L12.4798 86.5728Z" fill="white"/>
<path d="M104.545 48.5952L104.506 48.444C102.472 40.6968 98.502 33.6402 93.024 28.0374L92.5104 27.4974L90.9036 25.965L89.2236 24.5118L87.48 23.142L85.6692 21.8568L83.7996 20.6604L81.8742 19.5558L79.8942 18.546L77.8716 17.6322L75.8076 16.8186L73.7076 16.107L72.8496 15.8616L75.324 7.452L76.32 7.74L78.8256 8.5878L81.2856 9.558L83.6958 10.6464L86.0508 11.85L88.3434 13.1652L90.57 14.5896L92.7246 16.119L94.8 17.7498L96.7974 19.4784L98.7108 21.3L99.3228 21.939C105.854 28.6266 110.581 37.032 112.991 46.245L113.031 46.3968L104.545 48.5952ZM73.2372 15.6474L73.7994 15.8082L75.9156 16.5246L77.994 17.3436L80.031 18.2634L82.02 19.2804L83.9586 20.3928L85.842 21.6L87.6648 22.8942L89.4234 24.2742L91.1142 25.7376L92.7342 27.2802L93.252 27.8238C98.7306 33.4272 102.712 40.4766 104.772 48.2172L112.652 46.1772C110.243 37.0764 105.559 28.7772 99.1008 22.1616L98.493 21.5262L96.5922 19.7136L94.6062 17.9952L92.5392 16.3752L90.3972 14.8548L88.1838 13.4388L85.9038 12.1308L83.5638 10.9344L81.1674 9.8544L78.7152 8.88L76.224 8.04L75.5352 7.8414L73.2372 15.6474Z" fill="white"/>
<path d="M60.9966 114.664V114.557L60.8262 105.998H60.933C64.8246 105.908 68.5278 105.387 71.9406 104.45C75.6414 103.439 79.1088 102.04 82.2456 100.291L82.3398 100.239L86.5344 107.82L86.4408 107.872C82.6884 109.961 78.564 111.626 74.1828 112.819C70.0944 113.937 65.6946 114.559 61.1028 114.661L60.9966 114.664ZM61.0434 106.208L61.2078 114.445C65.7408 114.334 70.0878 113.717 74.1258 112.612C78.4542 111.434 82.53 109.792 86.2458 107.737L82.2576 100.529C79.1298 102.262 75.6786 103.649 71.9976 104.654C68.5974 105.588 64.9134 106.11 61.0434 106.208Z" fill="white"/>
<path d="M81.9258 94.8702L83.0208 94.17L84.0792 93.4158L84.6102 93.0402L85.1214 92.6394L86.145 91.8366C87.4614 90.7104 88.7664 89.5614 89.9382 88.281C92.3382 85.776 94.371 82.9314 96.066 79.9134C97.7496 76.8846 99.0132 73.6356 99.9018 70.293C100.744 66.9263 101.179 63.4705 101.197 60H102.041C102.024 63.5403 101.58 67.0656 100.721 70.5C99.8142 73.9122 98.5242 77.2284 96.8058 80.319C95.0748 83.4 93 86.3046 90.5514 88.86C89.3556 90.1662 88.0248 91.3386 86.6808 92.4876L85.6368 93.3066L85.1148 93.7164L84.5748 94.0992L83.4948 94.869L82.377 95.5836L81.9258 94.8702Z" fill="white"/>
<path d="M31.4263 89.6586C32.6551 90.8844 34.0147 91.9674 35.3803 93.0336L36.4411 93.7854L36.9697 94.164L37.5175 94.5132L38.6107 95.2158L39.7369 95.8638C42.7369 97.596 45.9841 98.8764 49.3183 99.7908C52.6525 100.705 56.1217 101.131 59.5945 101.185C63.0673 101.24 66.5359 100.797 69.8989 99.9912L70.1011 100.811C66.6685 101.633 63.1351 102.086 59.5867 102.029C56.0383 101.972 52.5067 101.536 49.1005 100.606C45.6943 99.6756 42.3853 98.3652 39.3205 96.5976L38.1709 95.9376L37.0555 95.2176L36.4963 94.8612L35.9563 94.4754L34.8763 93.708C33.4819 92.6208 32.0959 91.515 30.8413 90.2646L31.4263 89.6586Z" fill="white"/>
<path d="M21.7026 75.18C23.5682 79.875 26.2788 84.1881 29.7 87.9054L29.0796 88.4772C25.5874 84.6834 22.8205 80.2814 20.916 75.4896L21.7026 75.18Z" fill="white"/>
<path d="M96.8615 41.6082L96.2549 40.4202L95.5913 39.2634L95.2601 38.6844L94.9001 38.1222L94.1801 36.9978L93.4061 35.91L93.0209 35.3646L92.6075 34.8408L91.7831 33.7896L90.9071 32.7816L90.4703 32.2764L90.0077 31.7964L89.0855 30.8304C88.4303 30.2304 87.8159 29.5794 87.1265 29.0148C85.8065 27.819 84.3599 26.772 82.9001 25.7562C79.9295 23.7996 76.7393 22.1628 73.3673 21.036C71.6951 20.4312 69.9635 20.016 68.2301 19.6284L66.9173 19.3956L66.2609 19.2756L65.6009 19.1934L64.2773 19.0236L62.9453 18.9216L63.0053 18.0816L64.3643 18.186L65.7155 18.3594L66.3911 18.4434L67.0607 18.5634L68.4005 18.8034C70.1699 19.1982 71.9405 19.623 73.6439 20.2392C77.0855 21.3906 80.3417 23.0592 83.3729 25.0572C84.8627 26.0934 86.3369 27.162 87.6857 28.3818C88.3889 28.9584 89.0159 29.619 89.6843 30.2346L90.6257 31.2198L91.0967 31.7124L91.5431 32.2272L92.4365 33.2562L93.2765 34.3278L93.6965 34.863L94.0901 35.4192L94.8797 36.5292L95.6135 37.6764L95.9801 38.2506L96.3179 38.8416L96.9971 40.02L97.6163 41.232L96.8615 41.6082Z" fill="white"/>
<path d="M101.197 60C101.19 57.4394 100.949 54.8848 100.477 52.368L101.306 52.2126C101.787 54.7806 102.033 57.3872 102.041 60H101.197Z" fill="white"/>
<path d="M37.309 25.62C30.9256 29.8356 25.7452 35.8692 22.5598 42.813C20.9464 46.278 19.8754 49.9758 19.273 53.748C18.7366 57.528 18.6358 61.4058 19.141 65.1966L18.301 65.3016C17.7856 61.4334 17.8882 57.477 18.436 53.6208C19.0498 49.7712 20.1442 45.9966 21.7906 42.4608C25.0444 35.3736 30.3298 29.22 36.8434 24.9162L37.309 25.62Z" fill="white"/>
<path d="M79.0454 96.5274C79.271 96.4074 79.502 96.3018 79.7234 96.1758L80.3834 95.7936L80.8034 96.5268L80.1284 96.9162C79.9022 97.0446 79.667 97.1562 79.4366 97.2762L79.0454 96.5274Z" fill="white"/>
<path d="M76.7549 97.6338C77.2145 97.4166 77.6903 97.2318 78.1391 96.9918L78.5117 97.749C78.0527 97.9938 77.5679 98.1828 77.0981 98.4048L76.7549 97.6338Z" fill="white"/>
<path d="M74.4043 98.6034L75.8239 98.0442L76.1485 98.823L74.6995 99.3942L74.4043 98.6034Z" fill="white"/>
<path d="M20.4454 71.511L20.6518 72.2454L20.8978 72.9678L20.0968 73.233L19.846 72.4956L19.6348 71.7462L20.4454 71.511Z" fill="white"/>
<path d="M19.8127 69.0486C19.9327 69.5424 20.0275 70.0434 20.1667 70.533L19.3507 70.7478C19.2091 70.2486 19.1107 69.7374 18.9907 69.2328L19.8127 69.0486Z" fill="white"/>
<path d="M19.3271 66.5514L19.5959 68.0544L18.7679 68.2188L18.4937 66.6846L19.3271 66.5514Z" fill="white"/>
<path d="M40.4839 23.7126C40.0363 23.9556 39.6007 24.2196 39.1573 24.4698L38.7295 23.742C39.1819 23.487 39.6295 23.2176 40.0831 22.9698L40.4839 23.7126Z" fill="white"/>
<path d="M42.7639 22.584C42.5329 22.6902 42.2977 22.788 42.0691 22.9002L41.3905 23.25L41.0083 22.5L41.7001 22.14C41.9335 22.0254 42.1729 21.9252 42.4087 21.8166L42.7639 22.584Z" fill="white"/>
<path d="M45.105 21.591C44.6346 21.7854 44.1516 21.9474 43.6902 22.164L43.356 21.3894C43.8264 21.1686 44.3196 21.0024 44.7996 20.8044L45.105 21.591Z" fill="white"/>
<path d="M48.1584 20.5386C47.6646 20.6634 47.1912 20.853 46.707 21.0084L46.4346 20.2098C46.9284 20.0508 47.412 19.8576 47.916 19.7298L48.1584 20.5386Z" fill="white"/>
<path d="M51.2869 19.7346L49.7995 20.0772L49.5913 19.2594L51.1093 18.9102L51.2869 19.7346Z" fill="white"/>
<path d="M54.4722 19.1844L53.7138 19.2792L52.9626 19.4154L52.8198 18.5838L53.586 18.4452L54.36 18.348L54.4722 19.1844Z" fill="white"/>
<path d="M57.6934 18.8712L56.1682 18.9882L56.0908 18.1476L57.6472 18.0288L57.6934 18.8712Z" fill="white"/>
<path d="M60.9358 18.8292C60.4258 18.8148 59.9158 18.7938 59.4046 18.8202L59.3926 17.9766C59.9134 17.9502 60.4342 17.9712 60.9526 17.9856L60.9358 18.8292Z" fill="white"/>
<path d="M98.3012 44.8314C98.1158 44.3574 97.9358 43.8816 97.7144 43.4226L98.4872 43.0824C98.7122 43.551 98.8964 44.0364 99.0872 44.5224L98.3012 44.8314Z" fill="white"/>
<path d="M99.3817 47.8752C99.2311 47.3892 99.0565 46.911 98.8975 46.428L99.6943 46.1502C99.8569 46.6434 100.034 47.1312 100.189 47.6274L99.3817 47.8752Z" fill="white"/>
<path d="M100.2 51C100.08 50.5056 99.9829 50.0058 99.8491 49.515L100.666 49.3008C100.801 49.8018 100.902 50.3118 101.026 50.8164L100.2 51Z" fill="white"/>
<path d="M71.9956 99.42C72.4858 99.2838 72.9604 99.0984 73.4446 98.94L73.72 99.7374C73.2256 99.897 72.7408 100.085 72.241 100.225L71.9956 99.42Z" fill="white"/>
<path d="M36.0091 21.852C35.4235 22.2348 34.8211 22.5918 34.2607 23.0112L31.0879 18.4608C31.7185 17.9922 32.3929 17.5878 33.0511 17.1594L36.0091 21.852Z" fill="white"/>
<path d="M39.5401 19.845L38.6065 20.325C38.2993 20.4906 37.9999 20.6718 37.6957 20.844L34.9453 16.0266C35.2867 15.8328 35.6239 15.6312 35.9695 15.4446L37.0177 14.9046L39.5401 19.845Z" fill="white"/>
<path d="M43.2354 18.1638C42.5796 18.4038 41.9448 18.6996 41.3088 18.99L39.0054 13.9434C39.72 13.62 40.434 13.29 41.1702 13.0152L43.2354 18.1638Z" fill="white"/>
<path d="M96.8086 34.0068L96.2008 33.1518C95.9962 32.868 95.7712 32.5998 95.5576 32.3232L99.9328 28.9122C100.173 29.223 100.424 29.5254 100.653 29.8434L101.336 30.8034L96.8086 34.0068Z" fill="white"/>
<path d="M99.003 37.425C98.8266 37.125 98.661 36.8154 98.4756 36.519L97.9092 35.6364L102.572 32.6328L103.208 33.6246C103.415 33.9576 103.603 34.3026 103.802 34.6446L99.003 37.425Z" fill="white"/>
<path d="M100.882 41.0256C100.611 40.3812 100.265 39.7716 99.9536 39.1458L104.869 36.5748C105.22 37.2768 105.604 37.9638 105.913 38.6868L100.882 41.0256Z" fill="white"/>
<path d="M100.481 79.824C100.798 79.2012 101.064 78.5538 101.359 77.9202L106.448 80.1282C106.118 80.841 105.816 81.5682 105.461 82.2678L100.481 79.824Z" fill="white"/>
<path d="M98.5342 83.3898L99.5806 81.5718L104.449 84.231L103.273 86.2728L98.5342 83.3898Z" fill="white"/>
<path d="M96.2642 86.76C96.6656 86.1876 97.082 85.6254 97.4732 85.0458L102.082 88.1328C101.643 88.7832 101.177 89.4156 100.725 90.0576L96.2642 86.76Z" fill="white"/>
<path d="M93.7007 89.913C94.1501 89.3778 94.6343 88.8702 95.0579 88.3134L99.3713 91.8018C98.8913 92.4252 98.3513 92.9976 97.8479 93.597L93.7007 89.913Z" fill="white"/>
<path d="M90.8662 92.8254C91.3702 92.3406 91.8898 91.8714 92.3614 91.3536L96.3448 95.214C95.8138 95.793 95.233 96.3222 94.6648 96.8658L90.8662 92.8254Z" fill="white"/>
<path d="M87.7842 95.4738L88.6098 94.8258L89.4048 94.1412L93.0264 98.3412C92.7264 98.5968 92.4354 98.8584 92.1336 99.1086L91.2078 99.84L87.7842 95.4738Z" fill="white"/>
<path d="M84.48 97.8354C84.7716 97.6428 85.0746 97.467 85.3578 97.2618L86.2128 96.6534L89.4432 101.163L88.4832 101.845C88.164 102.074 87.8232 102.274 87.4974 102.49L84.48 97.8354Z" fill="white"/>
<path d="M80.9756 99.8916C81.6068 99.5916 82.196 99.2094 82.8068 98.8716L85.619 103.654C84.9338 104.036 84.269 104.458 83.5622 104.801L80.9756 99.8916Z" fill="white"/>
<path d="M23.3243 86.1798C23.5283 86.4636 23.7257 86.7528 23.9351 87.033L24.5837 87.8574L20.2259 91.29L19.4999 90.3636C19.2653 90.0492 19.0427 89.7258 18.8135 89.4072L23.3243 86.1798Z" fill="white"/>
<path d="M21.1109 82.7736C21.4451 83.3886 21.8417 83.9658 22.2149 84.5568L17.5667 87.5844C17.1467 86.9208 16.7045 86.2704 16.3271 85.5816L21.1109 82.7736Z" fill="white"/>
<path d="M19.2121 79.1838C19.4953 79.8228 19.8409 80.4318 20.1511 81.0582L15.2491 83.6544C14.8987 82.9518 14.5141 82.2654 14.1943 81.5478L19.2121 79.1838Z" fill="white"/>
<path d="M28.2067 91.9434C29.741 93.4494 31.3701 94.8557 33.0841 96.1536C34.817 97.4252 36.6288 98.5855 38.5087 99.6276C40.4042 100.639 42.3628 101.526 44.3725 102.286C46.3951 103.006 48.4525 103.633 50.5561 104.072C58.9603 105.856 67.8919 105.212 75.9217 102.169L77.8819 107.359C68.8417 110.779 58.8427 111.499 49.3999 109.498C47.0359 109.003 44.7199 108.298 42.4489 107.488C40.1897 106.637 37.9886 105.639 35.8597 104.501C33.7473 103.333 31.7124 102.03 29.7679 100.601C27.8427 99.1458 26.014 97.5672 24.2935 95.8752L28.2067 91.9434Z" fill="white"/>
<path d="M100.266 37.7778L100.2 37.6578C94.3171 27.0997 84.5241 19.2736 72.9286 15.864L72.7979 15.8256L75.247 7.4514L75.3773 7.4892C89.172 11.5431 100.823 20.8528 107.82 33.4134L107.886 33.5334L100.266 37.7778ZM73.1357 15.6408C84.6991 19.0788 94.4683 26.8865 100.371 37.4076L107.52 33.4272C100.572 21.0282 89.0606 11.8298 75.4342 7.7892L73.1357 15.6408Z" fill="white"/>
<path d="M44.6774 112.548L43.6832 112.26L41.1776 111.412L38.7176 110.441L36.3074 109.353L33.9524 108.149L31.6598 106.834L29.4332 105.41L27.2786 103.88L25.2002 102.251L23.2028 100.522L21.29 98.7L20.6774 98.061C14.1464 91.3728 9.42024 82.9674 7.00884 73.7538L6.96924 73.6026L15.4556 71.4048L15.4952 71.556C17.528 79.3026 21.4952 86.3592 26.9762 91.9626L27.4898 92.5026L29.1002 94.0344L30.7802 95.4876L32.5202 96.8586L34.331 98.1432L36.2012 99.339L38.126 100.444L40.103 101.455L42.1256 102.368L44.1902 103.181L46.2902 103.893L47.1482 104.138L44.6774 112.548ZM7.35204 73.8264C9.76104 82.9278 14.4446 91.2264 20.903 97.842L21.5114 98.4774L23.4122 100.29L25.3976 102.009L27.4646 103.629L29.6066 105.149L31.82 106.565L34.1 107.873L36.44 109.07L38.8364 110.15L41.285 111.12L43.7768 111.96L44.465 112.159L46.763 104.35L46.2014 104.189L44.0846 103.474L42.0062 102.653L39.9662 101.734L37.9802 100.72L36.0416 99.6072L34.1588 98.4036L32.336 97.1094L30.5774 95.7294L28.8872 94.266L27.2672 92.7234L26.75 92.1804C21.2708 86.5758 17.2892 79.5264 15.23 71.7864L7.35204 73.8264Z" fill="white"/>
<path d="M37.6622 19.7634L33.4658 12.18L33.5594 12.1278C37.3118 10.0386 41.4362 8.3742 45.818 7.1814C49.9058 6.06 54.3062 5.442 58.8956 5.34H59.0036L59.1758 14.0058H59.069C55.178 14.0964 51.4748 14.6172 48.062 15.5544C44.3594 16.5654 40.8926 17.9646 37.7564 19.713L37.6622 19.7634ZM33.7574 12.2634L37.7462 19.4712C40.8722 17.739 44.3228 16.3512 48.0062 15.3456C51.4046 14.412 55.0862 13.8894 58.958 13.7916L58.793 5.5554C54.26 5.6664 49.913 6.2826 45.8744 7.3878C41.5454 8.5662 37.4696 10.206 33.7574 12.2634Z" fill="white"/>
<path d="M16.764 44.2014L8.63037 41.2068L8.66757 41.1054C11.7376 32.7824 16.7852 25.3306 23.3754 19.392L23.4552 19.3194L29.262 25.7544L29.1828 25.8264C23.6342 30.8232 19.3844 37.0947 16.8 44.1L16.764 44.2014ZM8.90697 41.0814L16.638 43.926C19.2246 36.9623 23.4508 30.7243 28.959 25.74L23.439 19.6242C16.9393 25.5031 11.9539 32.8634 8.90577 41.0802L8.90697 41.0814Z" fill="white"/>
<path d="M38.074 25.1298L36.979 25.83L35.9206 26.5842L35.3896 26.9598L34.8784 27.36L33.8548 28.1622C32.5384 29.2884 31.2334 30.4374 30.0616 31.7178C27.6616 34.2228 25.6288 37.0674 23.9338 40.086C22.2502 43.1154 20.9866 46.3644 20.0998 49.707C19.2565 53.0736 18.8212 56.5294 18.8032 60H17.959C17.9761 56.4597 18.4193 52.9344 19.279 49.5C20.1874 46.0848 21.4798 42.7686 23.1958 39.6786C24.925 36.6 26.9998 33.696 29.4484 31.14C30.6442 29.8338 31.975 28.6614 33.319 27.5124L34.363 26.6934L34.885 26.2842L35.425 25.9008L36.505 25.131L37.6222 24.4164L38.074 25.1298Z" fill="white"/>
<path d="M88.5739 30.3414C87.3451 29.1156 85.9855 28.0326 84.6199 26.9664L83.5597 26.2146L83.0305 25.8366L82.4827 25.4868L81.3895 24.7842L80.2633 24.1368C77.2633 22.404 74.0161 21.1236 70.6813 20.2092C67.3465 19.2948 63.8785 18.8694 60.4057 18.8148C56.9329 18.7602 53.4643 19.203 50.1001 20.0088L49.8979 19.1892C53.3305 18.3666 56.8639 17.9142 60.4123 17.9712C63.9607 18.0282 67.4893 18.465 70.8985 19.3944C74.3077 20.3238 77.6137 21.6348 80.6785 23.4024L81.8281 24.0624L82.9441 24.78L83.5033 25.1364L84.0433 25.5222L85.1233 26.2896C86.5171 27.3768 87.9031 28.4832 89.1577 29.7336L88.5739 30.3414Z" fill="white"/>
<path d="M98.2972 44.82C96.4314 40.1252 93.7208 35.8121 90.2998 32.0946L90.9202 31.5228C94.4124 35.3166 97.1793 39.7186 99.0838 44.5104L98.2972 44.82Z" fill="white"/>
<path d="M23.1386 78.3918L23.7452 79.5798L24.4088 80.7366L24.74 81.3162L25.1 81.8778L25.82 83.0022L26.594 84.09L26.9792 84.6354L27.3926 85.1598L28.217 86.2104L29.093 87.2184L29.5304 87.7236L29.9924 88.2036L30.9146 89.1696C31.5698 89.7696 32.1842 90.4206 32.8736 90.9852C34.1936 92.181 35.6402 93.228 37.1 94.2438C40.0706 96.2004 43.2608 97.8372 46.6328 98.964C48.305 99.5688 50.0366 99.984 51.77 100.372L53.0828 100.604L53.7392 100.724L54.3992 100.807L55.7228 100.976L57.0548 101.078L56.9948 101.918L55.6358 101.814L54.2864 101.64L53.6102 101.556L52.9406 101.436L51.6008 101.196C49.8314 100.801 48.0644 100.376 46.3568 99.7602C42.9158 98.6088 39.6596 96.9402 36.6284 94.9428C35.1386 93.9066 33.6644 92.8374 32.3156 91.6176C31.6124 91.041 30.9854 90.3804 30.317 89.7648L29.3756 88.7796L28.9046 88.2876L28.4582 87.7722L27.5648 86.7432L26.7248 85.6716L26.3048 85.1364L25.9112 84.5802L25.1216 83.4702L24.3878 82.323L24.0212 81.7488L23.6834 81.1584L23.003 79.98L22.3838 78.768L23.1386 78.3918Z" fill="white"/>
<path d="M18.8032 60C18.8105 62.5606 19.0515 65.1152 19.5232 67.632L18.694 67.7874C18.2126 65.2194 17.9666 62.6128 17.959 60H18.8032Z" fill="white"/>
<path d="M82.6909 94.38C89.0743 90.1644 94.2547 84.1308 97.4389 77.187C99.0523 73.722 100.123 70.0242 100.726 66.252C101.262 62.472 101.363 58.5942 100.858 54.804L101.698 54.6984C102.213 58.5666 102.111 62.5236 101.563 66.3792C100.949 70.2288 99.8551 74.0034 98.2081 77.5392C94.9585 84.6258 89.6731 90.7812 83.1595 95.0832L82.6909 94.38Z" fill="white"/>
<path d="M40.9548 23.4726C40.7292 23.5926 40.4982 23.6988 40.2768 23.8242L39.6168 24.2064L39.1968 23.4732L39.8718 23.0838C40.098 22.9554 40.3332 22.8438 40.5636 22.7238L40.9548 23.4726Z" fill="white"/>
<path d="M43.2451 22.3662C42.7855 22.5834 42.3097 22.7682 41.8603 23.0082L41.4883 22.251C41.9473 22.0062 42.4321 21.8172 42.9019 21.5952L43.2451 22.3662Z" fill="white"/>
<path d="M45.5958 21.3966L44.1762 21.9564L43.8516 21.177L45.3006 20.6058L45.5958 21.3966Z" fill="white"/>
<path d="M99.5545 48.489L99.3481 47.7546L99.1021 47.0328L99.9031 46.767L100.154 47.5044L100.365 48.2538L99.5545 48.489Z" fill="white"/>
<path d="M100.187 50.9514C100.067 50.4576 99.9727 49.9566 99.8335 49.4676L100.649 49.2522C100.791 49.752 100.889 50.2632 101.009 50.7672L100.187 50.9514Z" fill="white"/>
<path d="M100.673 53.4486L100.405 51.9456L101.232 51.7812L101.506 53.3154L100.673 53.4486Z" fill="white"/>
<path d="M79.5161 96.2874C79.9637 96.0474 80.3993 95.7804 80.8427 95.5302L81.2705 96.258C80.8181 96.5136 80.3705 96.7824 79.9169 97.0302L79.5161 96.2874Z" fill="white"/>
<path d="M77.2363 97.4166C77.4673 97.3098 77.7025 97.212 77.9311 97.0998L78.6097 96.75L78.9919 97.5024L78.3001 97.86C78.0667 97.9752 77.8273 98.0754 77.5915 98.1834L77.2363 97.4166Z" fill="white"/>
<path d="M74.895 98.409C75.3654 98.2146 75.8484 98.0526 76.3098 97.836L76.644 98.6112C76.1736 98.8314 75.6804 98.9976 75.2004 99.1956L74.895 98.409Z" fill="white"/>
<path d="M71.8418 99.4614C72.3356 99.3372 72.8096 99.1476 73.2932 98.9916L73.5656 99.7902C73.0718 99.9492 72.5882 100.142 72.0842 100.27L71.8418 99.4614Z" fill="white"/>
<path d="M68.7134 100.265L70.2008 99.9228L70.409 100.741L68.891 101.09L68.7134 100.265Z" fill="white"/>
<path d="M65.5278 100.816L66.2862 100.721L67.0374 100.585L67.1802 101.416L66.414 101.555L65.64 101.652L65.5278 100.816Z" fill="white"/>
<path d="M62.3066 101.129L63.8318 101.012L63.9092 101.852L62.3528 101.971L62.3066 101.129Z" fill="white"/>
<path d="M59.0642 101.171C59.5742 101.185 60.0842 101.206 60.5954 101.18L60.6074 102.023C60.0866 102.05 59.5658 102.029 59.0474 102.014L59.0642 101.171Z" fill="white"/>
<path d="M21.699 75.1686C21.8844 75.6426 22.0644 76.119 22.2858 76.5774L21.5136 76.92C21.288 76.4514 21.1038 75.966 20.9136 75.48L21.699 75.1686Z" fill="white"/>
<path d="M20.6184 72.1248C20.769 72.6108 20.9436 73.089 21.1026 73.572L20.3058 73.8498C20.1432 73.3572 19.9656 72.8688 19.812 72.3732L20.6184 72.1248Z" fill="white"/>
<path d="M19.8001 69C19.9201 69.4938 20.0173 69.9936 20.1511 70.4844L19.3351 70.6986C19.1989 70.1976 19.0981 69.6876 18.9751 69.183L19.8001 69Z" fill="white"/>
<path d="M48.0042 20.58C47.514 20.7162 47.0394 20.9016 46.5552 21.06L46.2798 20.2626C46.7742 20.103 47.259 19.9146 47.7588 19.7754L48.0042 20.58Z" fill="white"/>
<path d="M98.9951 49.8768L98.9651 49.7604C98.4039 47.6385 97.6707 45.5658 96.7727 43.563C95.8823 41.5558 94.8231 39.6279 93.6065 37.8C91.0919 34.0338 88.0865 30.7974 84.6797 28.1796C77.8049 22.7724 69.1199 19.7712 60.2255 19.725H60.1055L60.1589 10.0518H60.2789C71.2991 10.0962 82.0727 13.821 90.6155 20.5386C94.8557 23.802 98.5763 27.8124 101.672 32.4564C103.18 34.7262 104.494 37.1191 105.6 39.6096C106.715 42.0977 107.625 44.6729 108.321 47.3094L108.351 47.4252L98.9951 49.8768ZM60.3467 19.4856C69.2537 19.5582 77.9429 22.575 84.8267 27.9882C88.2557 30.621 91.2767 33.8766 93.8057 37.6644C95.0301 39.5041 96.0959 41.4444 96.9917 43.4646C97.8788 45.4432 98.6059 47.4898 99.1661 49.5846L108.06 47.2536C107.372 44.6706 106.476 42.1472 105.383 39.708C104.228 37.1316 102.912 34.7364 101.472 32.5902C98.3909 27.9702 94.6883 23.9766 90.4673 20.7282C81.9971 14.0682 71.3231 10.3638 60.3977 10.2924L60.3467 19.4856Z" fill="white"/>
<path d="M39.1241 105.36L39.0329 105.318C31.9996 102.052 25.8196 97.1998 20.9789 91.1418C18.5033 88.0266 16.4417 84.7296 14.8517 81.3432C13.2046 77.8438 11.9639 74.1673 11.1539 70.3854L11.1323 70.2858L11.2319 70.2654L20.5589 68.2902L20.5799 68.3892C21.2351 71.4363 22.2349 74.399 23.5601 77.22C24.8321 79.9332 26.4965 82.5936 28.5065 85.128C32.4158 90.0184 37.4051 93.9365 43.0829 96.5748L43.1753 96.6174L39.1241 105.36ZM11.3729 70.44C12.18 74.1718 13.4079 77.8 15.0329 81.255C16.6199 84.6312 18.6719 87.9144 21.1373 91.02C25.937 97.0261 32.0586 101.843 39.0251 105.095L42.9059 96.72C37.2369 94.0683 32.2553 90.1455 28.3481 85.2564C26.3279 82.71 24.6551 80.0364 23.3771 77.3094C22.0593 74.505 21.0618 71.561 20.4035 68.5332L11.3729 70.44Z" fill="white"/>
<path d="M37.7836 26.304C33.034 29.4144 28.9858 33.579 25.9354 38.3592C22.885 43.1394 20.8492 48.5658 20.059 54.1848L16.834 53.7198C17.689 47.646 19.8892 41.7768 23.1874 36.609C26.4856 31.4412 30.856 26.949 35.9872 23.589L37.7836 26.304Z" fill="white"/>
</g>
<defs>
<linearGradient id="paint0_linear_208_6701" x1="17.826" y1="17.3226" x2="102.174" y2="102.677" gradientUnits="userSpaceOnUse">
<stop stop-color="#00E867"/>
<stop offset="1" stop-color="#0051C2"/>
</linearGradient>
<clipPath id="clip0_208_6701">
<rect width="120" height="120" fill="white"/>
</clipPath>
</defs>
</svg>
